<svg width="30" height="30" viewBox="0 0 30 30" fill="none" xmlns="http://www.w3.org/2000/svg">
<path d="M7.19042 19.6097L14.3257 26.0523C14.5157 26.2423 15.19 26.653 15.9501 26.0523L23.0854 19.6097C23.9068 18.9232 23.3367 17.4213 22.2088 17.4213H19.3277V10.1635C19.3277 9.47691 18.7638 8.91295 18.0772 8.91295H12.1925C11.5059 8.91295 10.942 9.47691 10.942 10.1635V17.4213H8.06088C6.86554 17.4213 6.36288 19.0151 7.19042 19.6097ZM12.1986 19.9223C12.8852 19.9223 13.4491 19.3584 13.4491 18.6718V11.414H16.8267V18.6718C16.8267 19.3584 17.3907 19.9223 18.0772 19.9223H19.0151L15.1348 23.4287L11.2546 19.9223H12.1986Z" fill="#AD847F"/>
<path d="M27.7748 6.37515C27.8116 5.76216 27.3396 5.33306 27.1312 5.12464C26.8185 4.87331 25.519 3.47568 27.3212 2.18839C27.7564 1.87577 27.8852 1.31181 27.6951 0.815284C27.5051 0.312628 27.0086 0 26.5059 0H6.06252C3.93542 0 2.18839 1.68574 2.18839 3.81283C2.18839 3.82509 2.18839 25.2493 2.18839 25.2493C2.18839 27.8729 4.31548 30 7.0004 30H26.5611C27.2476 30 27.8116 29.436 27.8116 28.7495C27.8116 28.7495 27.7993 6.47323 27.7748 6.37515ZM6.06252 2.50102H24.0662C23.4777 3.46342 23.6248 4.49326 24.0662 5.12464H6.06252C5.31466 5.12464 4.68941 4.56069 4.68941 3.81283C4.68941 3.05885 5.31466 2.50102 6.06252 2.50102ZM25.3106 27.499H7.0004C5.74989 27.499 4.68941 26.4998 4.68941 25.2493V7.36821C5.1185 7.53371 5.57825 7.62566 6.06252 7.62566H25.3106V27.499Z" fill="#AD847F"/>
</svg>
