<svg width="90" height="90" viewBox="0 0 90 90" fill="none" xmlns="http://www.w3.org/2000/svg">
<path d="M83.4348 3.75153C83.4348 1.69187 81.7429 0 79.6833 0H21.0012C12.9464 0 6.56516 6.38128 6.56516 14.2521C6.56516 14.2521 6.56516 78.5247 6.56516 78.5615C6.56516 84.9428 11.8063 90 18.1876 90H79.4994C81.0073 90 82.4969 89.0621 83.067 87.5542C83.6371 86.0462 83.2509 84.3727 81.9452 83.4348C78.6166 81.32 78.4144 76.6857 81.3751 74.6261C82.0004 74.0008 83.4164 72.7135 83.3061 70.8745C83.398 70.5803 83.4348 3.75153 83.4348 3.75153ZM14.0682 78.5615C14.0682 76.3179 15.944 74.6261 18.1876 74.6261H72.1986C70.5435 77.3846 70.8929 80.6212 72.1986 82.4969H18.1876C15.944 82.4969 14.0682 80.8235 14.0682 78.5615ZM75.9501 67.123H18.2059C16.7531 67.123 15.3739 67.3989 14.0866 67.8954V14.2521C14.0866 10.5006 17.2681 7.50307 21.0196 7.50307H75.9685V67.123H75.9501Z" fill="#AD847F"/>
</svg>
