<svg width="30" height="30" viewBox="0 0 30 30" fill="none" xmlns="http://www.w3.org/2000/svg">
<path d="M29.6219 27.8512L21.0144 19.2376C22.7113 17.2026 23.7319 14.6019 23.7319 11.7614C23.7319 5.28127 18.4138 0.0122833 11.8721 0.0122833C5.33046 0.0122833 0 5.28741 0 11.7676C0 18.2478 5.31817 23.5167 11.8598 23.5167C14.6388 23.5167 17.1964 22.5638 19.2253 20.9714L27.8635 29.6096C28.3677 30.1137 29.1177 30.1137 29.6219 29.6096C30.126 29.1054 30.126 28.3554 29.6219 27.8512ZM2.52075 11.7676C2.52075 6.6769 6.7138 2.53918 11.8598 2.53918C17.0058 2.53918 21.1989 6.6769 21.1989 11.7676C21.1989 16.8583 17.0058 20.996 11.8598 20.996C6.7138 20.996 2.52075 16.8521 2.52075 11.7676Z" fill="#AD847F"/>
</svg>
